<svg xmlns="http://www.w3.org/2000/svg" width="13" height="13" viewBox="0 0 13 13">
    <g fill="none" fill-rule="evenodd">
        <g fill="#343A40" fill-rule="nonzero">
            <g>
                <g>
                    <g>
                        <path d="M94.465 25.389c.43 0 .78-.356.78-.76v-4.278h4.17c.416 0 .772-.349.772-.78 0-.424-.356-.779-.773-.779h-4.17v-4.28c0-.41-.348-.758-.78-.758-.423 0-.778.349-.778.759v4.279h-4.17c-.404 0-.773.355-.773.78 0 .43.37.779.773.779h4.17v4.279c0 .403.355.759.779.759z" transform="translate(-318 -335) translate(16 167) translate(0 10) translate(214 145)"/>
                    </g>
                </g>
            </g>
        </g>
    </g>
</svg>
